<?xml version="1.0" standalone="no"?>
<!DOCTYPE svg PUBLIC "-//W3C//DTD SVG 20010904//EN"
 "http://www.w3.org/TR/2001/REC-SVG-20010904/DTD/svg10.dtd">
<svg version="1.0" xmlns="http://www.w3.org/2000/svg"
 width="260.000000pt" height="260.000000pt" viewBox="0 0 260.000000 260.000000"
 preserveAspectRatio="xMidYMid meet">
<metadata>
Created by potrace 1.14, written by Peter Selinger 2001-2017
</metadata>
<g transform="translate(0.000000,260.000000) scale(0.100000,-0.100000)"
fill="#000000" stroke="none">
<path d="M1635 2313 c-61 -64 -122 -128 -136 -142 -20 -19 -34 -54 -55 -133
-21 -78 -33 -108 -44 -108 -67 0 -373 -11 -405 -15 -102 -12 -129 -17 -166
-31 -43 -18 -48 -28 -20 -43 61 -33 201 -46 491 -46 294 0 389 8 479 42 41 15
43 17 25 30 -31 22 -103 39 -219 49 -38 3 -71 7 -72 8 -1 0 8 41 20 89 23 95
14 83 215 290 34 36 62 70 62 75 0 11 -47 52 -59 52 -4 0 -56 -52 -116 -117z
m-176 -478 c12 2 26 7 32 11 7 4 10 1 7 -7 -3 -8 -15 -16 -28 -17 -33 -5 -92
7 -85 18 3 6 15 6 30 0 13 -5 33 -7 44 -5z"/>
<path d="M805 1757 c4 -34 8 -75 10 -92 2 -16 6 -61 10 -100 4 -38 9 -81 11
-95 2 -14 7 -59 10 -100 7 -82 18 -108 27 -63 8 41 79 146 120 177 53 41 96
44 135 11 36 -30 44 -75 14 -75 -11 0 -24 11 -30 24 -17 38 -46 38 -91 -1 -73
-62 -143 -247 -112 -293 9 -13 15 -12 47 5 34 18 104 97 104 117 0 5 7 25 15
45 12 29 18 33 29 24 15 -13 14 -57 -2 -88 -5 -10 -22 -61 -37 -113 -29 -99
-41 -124 -57 -114 -11 7 -5 65 11 107 7 17 7 27 1 27 -6 0 -10 -4 -10 -9 0
-17 -77 -61 -108 -61 -28 0 -32 -3 -28 -22 5 -22 9 -60 21 -193 8 -80 14 -126
20 -135 8 -13 112 -41 201 -54 81 -12 297 -13 368 -2 78 12 171 41 187 57 11
11 19 31 20 47 0 15 2 36 4 47 1 11 6 52 9 90 4 39 12 99 17 135 14 106 15
104 -37 65 -47 -36 -81 -44 -102 -23 -19 19 -15 30 28 88 44 59 48 70 24 70
-21 0 -79 -63 -99 -109 -9 -20 -20 -45 -25 -56 -5 -11 -20 -47 -33 -80 -17
-45 -28 -60 -43 -60 -26 0 -21 32 17 114 16 35 29 65 29 67 0 2 -16 -8 -36
-21 -42 -29 -69 -32 -82 -9 -8 13 -12 13 -39 -3 -26 -14 -33 -15 -47 -4 -11 9
-14 21 -10 34 6 19 3 18 -25 -6 -66 -55 -117 -44 -108 24 7 50 57 159 73 159
25 0 25 -20 -1 -73 -36 -77 -33 -105 9 -86 23 11 64 72 86 127 13 32 35 43 42
20 3 -7 -6 -39 -19 -70 -13 -32 -23 -64 -23 -73 0 -33 53 -8 68 32 36 95 106
271 113 285 10 18 39 14 39 -5 0 -7 -27 -78 -60 -160 -34 -81 -58 -152 -54
-158 13 -22 110 60 119 101 7 32 29 55 44 46 6 -4 7 -14 4 -23 -5 -12 4 -9 29
10 39 30 69 34 92 12 19 -19 8 -50 -41 -111 -18 -23 -30 -44 -26 -47 8 -8 101
64 107 83 8 22 14 66 21 145 3 39 8 81 10 95 2 14 6 56 10 93 3 37 8 76 10 87
2 10 6 54 10 98 l6 80 -43 -13 c-182 -54 -741 -52 -926 4 l-33 10 6 -62z"/>
<path d="M940 695 c0 -3 13 -29 29 -58 24 -42 30 -69 35 -137 12 -172 17 -235
21 -257 13 -61 299 -91 467 -48 74 18 88 33 89 94 0 25 2 60 4 76 2 17 6 76 9
132 5 89 9 108 36 152 32 55 32 56 -20 40 -19 -5 -46 -12 -60 -15 -14 -3 -36
-8 -50 -11 -53 -12 -362 -11 -411 2 -27 7 -49 11 -49 9 0 -2 -10 0 -22 5 -37
13 -78 22 -78 16z"/>
</g>
</svg>
